<svg xmlns="http://www.w3.org/2000/svg" version="1.1" xmlns:xlink="http://www.w3.org/1999/xlink" xmlns:svgjs="http://svgjs.dev/svgjs" width="2000" height="1500" viewBox="0 0 2000 1500"><rect width="2000" height="1500" fill="#444444"></rect><g transform="matrix(0.75,0,0,0.75,249.090909090909,601.4780545741166)"><svg viewBox="0 0 396 79" data-background-color="#444444" preserveAspectRatio="xMidYMid meet" height="398" width="2000" xmlns="http://www.w3.org/2000/svg" xmlns:xlink="http://www.w3.org/1999/xlink"><g id="tight-bounds" transform="matrix(1,0,0,1,0.24000000000003752,-0.19268139350702995)"><svg viewBox="0 0 395.5199999999999 79.38536585365853" height="79.38536585365853" width="395.5199999999999"><g><svg viewBox="0 0 395.52000000000004 79.38536585365854" height="79.38536585365853" width="395.5199999999999"><g><svg viewBox="0 0 395.52000000000004 79.38536585365854" height="79.38536585365854" width="395.52000000000004"><g id="textblocktransform"><svg viewBox="0 0 395.52000000000004 79.38536585365854" height="79.38536585365854" width="395.52000000000004" id="textblock"><g><svg viewBox="0 0 395.52000000000004 79.38536585365854" height="79.38536585365854" width="395.52000000000004"><g transform="matrix(1,0,0,1,0,0)"><svg width="395.52000000000004" viewBox="4.449999809265137 -37.849998474121094 198.19000244140625 39.5" height="79.38536585365854" data-palette-color="#ffdc00"><g class="wordmark-text-0" data-fill-palette-color="primary" id="text-0"><path d="M4.45 0L4.45-37.85Q4.9-37.15 6.33-35.18 7.75-33.2 9.63-30.6 11.5-28 13.6-25.08 15.7-22.15 17.55-19.58 19.4-17 20.78-15.1 22.15-13.2 22.6-12.6L22.6-12.6Q22.75-12.85 23.55-13.95 24.35-15.05 25.53-16.7 26.7-18.35 28.2-20.43 29.7-22.5 31.28-24.68 32.85-26.85 34.38-29 35.9-31.15 37.2-32.93 38.5-34.7 39.43-36.02 40.35-37.35 40.75-37.85L40.75-37.85 40.75 0 34.95 0 34.95-20.3Q34.95-20.7 35.02-21.15 35.1-21.6 35.1-21.8L35.1-21.8Q34.65-21.2 33.68-19.78 32.7-18.35 31.43-16.53 30.15-14.7 28.75-12.68 27.35-10.65 26.1-8.85 24.85-7.05 23.9-5.68 22.95-4.3 22.6-3.75L22.6-3.75Q22.25-4.2 21.23-5.63 20.2-7.05 18.82-8.95 17.45-10.85 15.93-13 14.4-15.15 13.1-17 11.8-18.85 10.85-20.18 9.9-21.5 9.75-21.8L9.75-21.8Q9.75-21.6 9.83-21.15 9.9-20.7 9.9-20.3L9.9-20.3 9.9 0 4.45 0ZM47.1-18.1L47.1-18.1Q47.1-21.85 48.55-25.23 50-28.6 52.52-31.15 55.05-33.7 58.4-35.18 61.75-36.65 65.6-36.65L65.6-36.65Q69.4-36.65 72.77-35.18 76.15-33.7 78.67-31.15 81.2-28.6 82.67-25.23 84.15-21.85 84.15-18.1L84.15-18.1Q84.15-14.25 82.67-10.9 81.2-7.55 78.67-5.03 76.15-2.5 72.77-1.05 69.4 0.4 65.6 0.4L65.6 0.4Q61.75 0.4 58.4-1.05 55.05-2.5 52.52-5.03 50-7.55 48.55-10.9 47.1-14.25 47.1-18.1ZM52.55-18.05L52.55-18.05Q52.55-15.3 53.57-12.88 54.6-10.45 56.4-8.65 58.2-6.85 60.6-5.8 63-4.75 65.7-4.75L65.7-4.75Q68.4-4.75 70.77-5.8 73.15-6.85 74.92-8.65 76.7-10.45 77.72-12.88 78.75-15.3 78.75-18.1L78.75-18.1Q78.75-20.85 77.72-23.28 76.7-25.7 74.9-27.5 73.1-29.3 70.72-30.35 68.35-31.4 65.65-31.4L65.65-31.4Q62.95-31.4 60.55-30.35 58.15-29.3 56.37-27.5 54.6-25.7 53.57-23.25 52.55-20.8 52.55-18.05ZM87.95-18.1L87.95-18.1Q87.95-21.85 89.4-25.23 90.85-28.6 93.37-31.15 95.9-33.7 99.25-35.18 102.6-36.65 106.45-36.65L106.45-36.65Q110.25-36.65 113.62-35.18 117-33.7 119.52-31.15 122.05-28.6 123.52-25.23 125-21.85 125-18.1L125-18.1Q125-14.25 123.52-10.9 122.05-7.55 119.52-5.03 117-2.5 113.62-1.05 110.25 0.4 106.45 0.4L106.45 0.4Q102.6 0.4 99.25-1.05 95.9-2.5 93.37-5.03 90.85-7.55 89.4-10.9 87.95-14.25 87.95-18.1ZM93.4-18.05L93.4-18.05Q93.4-15.3 94.42-12.88 95.45-10.45 97.25-8.65 99.05-6.85 101.45-5.8 103.85-4.75 106.55-4.75L106.55-4.75Q109.25-4.75 111.62-5.8 114-6.85 115.77-8.65 117.55-10.45 118.57-12.88 119.6-15.3 119.6-18.1L119.6-18.1Q119.6-20.85 118.57-23.28 117.55-25.7 115.75-27.5 113.95-29.3 111.57-30.35 109.2-31.4 106.5-31.4L106.5-31.4Q103.8-31.4 101.4-30.35 99-29.3 97.22-27.5 95.45-25.7 94.42-23.25 93.4-20.8 93.4-18.05ZM126.99-36.25L132.39-36.25Q132.74-35.4 133.54-33.48 134.34-31.55 135.37-29.1 136.39-26.65 137.52-23.9 138.64-21.15 139.64-18.7 140.64-16.25 141.44-14.33 142.24-12.4 142.59-11.55L142.59-11.55Q142.64-11.45 142.84-10.85 143.04-10.25 143.14-9.8L143.14-9.8 143.64-11.55Q143.99-12.4 144.79-14.33 145.59-16.25 146.59-18.7 147.59-21.15 148.72-23.9 149.84-26.65 150.87-29.1 151.89-31.55 152.69-33.48 153.49-35.4 153.84-36.25L153.84-36.25 159.24-36.25Q158.94-35.55 158.17-33.73 157.39-31.9 156.29-29.3 155.19-26.7 153.87-23.6 152.54-20.5 151.17-17.3 149.79-14.1 148.47-11 147.14-7.9 146.07-5.3 144.99-2.7 144.22-0.88 143.44 0.95 143.14 1.65L143.14 1.65 126.99-36.25ZM163.79 0L163.79-36.25 169.24-36.25 169.24 0 163.79 0ZM202.64 0L178.14 0 178.14-36.25 201.94-36.25 201.94-31.3 183.64-31.3 183.64-20.7 199.94-20.7 199.94-15.65 183.64-15.65 183.64-5.05 202.64-5.05 202.64 0Z" fill="#ffdc00" data-fill-palette-color="primary"></path></g></svg></g></svg></g></svg></g></svg></g><g></g></svg></g><defs></defs></svg><rect width="395.5199999999999" height="79.38536585365853" fill="none" stroke="none" visibility="hidden"></rect></g></svg></g></svg>